<svg width="25" height="25" viewBox="0 0 25 25" fill="none" xmlns="http://www.w3.org/2000/svg">
<g clip-path="url(#clip0_40_140)">
<path d="M15.2178 3.42804C15.3389 3.52517 15.4269 3.65746 15.4696 3.80668C15.5123 3.9559 15.5076 4.11469 15.4563 4.26116C15.4049 4.40763 15.3094 4.53456 15.1829 4.62445C15.0563 4.71434 14.9051 4.76276 14.7498 4.76304C12.2433 4.76304 10.4718 5.65704 9.32584 6.54054L7.78534 8.10954V9.81504C7.78552 9.9136 7.76627 10.0112 7.72869 10.1023C7.69111 10.1934 7.63594 10.2763 7.56634 10.346L5.63734 12.2795C5.56767 12.3494 5.48491 12.4048 5.39379 12.4426C5.30267 12.4804 5.20499 12.4999 5.10634 12.4999C5.00769 12.4999 4.91001 12.4804 4.81889 12.4426C4.72777 12.4048 4.64501 12.3494 4.57534 12.2795L0.718841 8.41104C0.578696 8.27046 0.5 8.08005 0.5 7.88154C0.5 7.68303 0.578696 7.49262 0.718841 7.35204L2.64784 5.41704C2.71762 5.34744 2.80043 5.29227 2.89155 5.25469C2.98266 5.21711 3.08028 5.19786 3.17884 5.19804H4.75984C7.25734 2.34204 9.82384 1.79304 11.8353 2.06004C12.9485 2.21316 14.0131 2.614 14.9508 3.23304L15.2178 3.42654V3.42804Z" fill="black"/>
<path fill-rule="evenodd" clip-rule="evenodd" d="M9.51773 5.75002C9.6196 5.75253 9.71988 5.77578 9.81247 5.81833C9.90505 5.86088 9.98799 5.92185 10.0562 5.99752L23.7752 18.9665C23.9044 19.1092 23.9737 19.296 23.969 19.4884C23.9643 19.6807 23.8858 19.8639 23.7497 20L21.4997 22.25C21.4235 22.3264 21.3316 22.3855 21.2304 22.4231C21.1292 22.4608 21.0211 22.4762 20.9135 22.4682C20.8058 22.4602 20.7011 22.4291 20.6066 22.3769C20.5121 22.3248 20.4299 22.2528 20.3657 22.166L7.39673 8.44552C7.29016 8.30125 7.23883 8.12356 7.25204 7.94468C7.26525 7.7658 7.34213 7.59758 7.46873 7.47052L8.96873 5.97052C9.04051 5.89847 9.12619 5.84176 9.22057 5.80385C9.31495 5.76595 9.41605 5.74763 9.51773 5.75002Z" fill="black"/>
</g>
<defs>
<clipPath id="clip0_40_140">
<rect width="24" height="24" fill="white" transform="translate(0.5 0.5)"/>
</clipPath>
</defs>
</svg>
