<svg width="17" height="16" viewBox="0 0 17 16" fill="none" xmlns="http://www.w3.org/2000/svg">
<path fill-rule="evenodd" clip-rule="evenodd" d="M11.8539 1.64592C11.9005 1.69236 11.9374 1.74754 11.9626 1.80828C11.9878 1.86903 12.0008 1.93415 12.0008 1.99992C12.0008 2.06568 11.9878 2.13081 11.9626 2.19155C11.9374 2.2523 11.9005 2.30747 11.8539 2.35392L6.20692 7.99992L11.8539 13.6459C11.9478 13.7398 12.0005 13.8671 12.0005 13.9999C12.0005 14.1327 11.9478 14.26 11.8539 14.3539C11.76 14.4478 11.6327 14.5005 11.4999 14.5005C11.3671 14.5005 11.2398 14.4478 11.1459 14.3539L5.14592 8.35392C5.09935 8.30747 5.06241 8.2523 5.0372 8.19155C5.012 8.1308 4.99902 8.06568 4.99902 7.99992C4.99902 7.93415 5.012 7.86903 5.0372 7.80828C5.06241 7.74754 5.09935 7.69236 5.14592 7.64592L11.1459 1.64592C11.1924 1.59935 11.2475 1.56241 11.3083 1.5372C11.369 1.512 11.4342 1.49902 11.4999 1.49902C11.5657 1.49902 11.6308 1.512 11.6916 1.5372C11.7523 1.56241 11.8075 1.59935 11.8539 1.64592Z" fill="#ADB5BD"/>
</svg>
