<svg width="25" height="25" viewBox="0 0 25 25" fill="none" xmlns="http://www.w3.org/2000/svg">
<path fill-rule="evenodd" clip-rule="evenodd" d="M12.5 5.4395L21.5 14.4395V20.75C21.5 21.3467 21.2629 21.919 20.841 22.341C20.419 22.7629 19.8467 23 19.25 23H5.75C5.15326 23 4.58097 22.7629 4.15901 22.341C3.73705 21.919 3.5 21.3467 3.5 20.75V14.4395L12.5 5.4395ZM20 4.25V9.5L17 6.5V4.25C17 4.05109 17.079 3.86032 17.2197 3.71967C17.3603 3.57902 17.5511 3.5 17.75 3.5H19.25C19.4489 3.5 19.6397 3.57902 19.7803 3.71967C19.921 3.86032 20 4.05109 20 4.25Z" fill="black"/>
<path fill-rule="evenodd" clip-rule="evenodd" d="M11.4404 2.75009C11.7217 2.46889 12.1032 2.31091 12.5009 2.31091C12.8987 2.31091 13.2801 2.46889 13.5614 2.75009L23.5319 12.7191C23.6727 12.8599 23.7519 13.0509 23.7519 13.2501C23.7519 13.4493 23.6727 13.6403 23.5319 13.7811C23.3911 13.9219 23.2001 14.001 23.0009 14.001C22.8018 14.001 22.6107 13.9219 22.4699 13.7811L12.5009 3.81059L2.53192 13.7811C2.39109 13.9219 2.20008 14.001 2.00092 14.001C1.80175 14.001 1.61075 13.9219 1.46992 13.7811C1.32909 13.6403 1.24997 13.4493 1.24997 13.2501C1.24997 13.0509 1.32909 12.8599 1.46992 12.7191L11.4404 2.75009Z" fill="black"/>
</svg>
