<svg width="25" height="25" viewBox="0 0 25 25" fill="none" xmlns="http://www.w3.org/2000/svg">
<g clip-path="url(#clip0_130_59)">
<path d="M5 3.5H17C17.7956 3.5 18.5587 3.81607 19.1213 4.37868C19.6839 4.94129 20 5.70435 20 6.5V21.5C20 22.2956 19.6839 23.0587 19.1213 23.6213C18.5587 24.1839 17.7956 24.5 17 24.5H5C4.20435 24.5 3.44129 24.1839 2.87868 23.6213C2.31607 23.0587 2 22.2956 2 21.5H3.5C3.5 21.8978 3.65804 22.2794 3.93934 22.5607C4.22064 22.842 4.60218 23 5 23H17C17.3978 23 17.7794 22.842 18.0607 22.5607C18.342 22.2794 18.5 21.8978 18.5 21.5V6.5C18.5 6.10218 18.342 5.72064 18.0607 5.43934C17.7794 5.15804 17.3978 5 17 5H5C4.60218 5 4.22064 5.15804 3.93934 5.43934C3.65804 5.72064 3.5 6.10218 3.5 6.5H2C2 5.70435 2.31607 4.94129 2.87868 4.37868C3.44129 3.81607 4.20435 3.5 5 3.5Z" fill="black"/>
<path d="M8 0.5H20C20.7956 0.5 21.5587 0.816071 22.1213 1.37868C22.6839 1.94129 23 2.70435 23 3.5V18.5C23 19.2956 22.6839 20.0587 22.1213 20.6213C21.5587 21.1839 20.7956 21.5 20 21.5V20C20.3978 20 20.7794 19.842 21.0607 19.5607C21.342 19.2794 21.5 18.8978 21.5 18.5V3.5C21.5 3.10218 21.342 2.72064 21.0607 2.43934C20.7794 2.15804 20.3978 2 20 2H8C7.60218 2 7.22064 2.15804 6.93934 2.43934C6.65804 2.72064 6.5 3.10218 6.5 3.5H5C5 2.70435 5.31607 1.94129 5.87868 1.37868C6.44129 0.816071 7.20435 0.5 8 0.5V0.5ZM2 9.5V8.75C2 8.55109 2.07902 8.36032 2.21967 8.21967C2.36032 8.07902 2.55109 8 2.75 8C2.94891 8 3.13968 8.07902 3.28033 8.21967C3.42098 8.36032 3.5 8.55109 3.5 8.75V9.5H4.25C4.44891 9.5 4.63968 9.57902 4.78033 9.71967C4.92098 9.86032 5 10.0511 5 10.25C5 10.4489 4.92098 10.6397 4.78033 10.7803C4.63968 10.921 4.44891 11 4.25 11H1.25C1.05109 11 0.860322 10.921 0.71967 10.7803C0.579018 10.6397 0.5 10.4489 0.5 10.25C0.5 10.0511 0.579018 9.86032 0.71967 9.71967C0.860322 9.57902 1.05109 9.5 1.25 9.5H2ZM2 14V13.25C2 13.0511 2.07902 12.8603 2.21967 12.7197C2.36032 12.579 2.55109 12.5 2.75 12.5C2.94891 12.5 3.13968 12.579 3.28033 12.7197C3.42098 12.8603 3.5 13.0511 3.5 13.25V14H4.25C4.44891 14 4.63968 14.079 4.78033 14.2197C4.92098 14.3603 5 14.5511 5 14.75C5 14.9489 4.92098 15.1397 4.78033 15.2803C4.63968 15.421 4.44891 15.5 4.25 15.5H1.25C1.05109 15.5 0.860322 15.421 0.71967 15.2803C0.579018 15.1397 0.5 14.9489 0.5 14.75C0.5 14.5511 0.579018 14.3603 0.71967 14.2197C0.860322 14.079 1.05109 14 1.25 14H2ZM2 18.5V17.75C2 17.5511 2.07902 17.3603 2.21967 17.2197C2.36032 17.079 2.55109 17 2.75 17C2.94891 17 3.13968 17.079 3.28033 17.2197C3.42098 17.3603 3.5 17.5511 3.5 17.75V18.5H4.25C4.44891 18.5 4.63968 18.579 4.78033 18.7197C4.92098 18.8603 5 19.0511 5 19.25C5 19.4489 4.92098 19.6397 4.78033 19.7803C4.63968 19.921 4.44891 20 4.25 20H1.25C1.05109 20 0.860322 19.921 0.71967 19.7803C0.579018 19.6397 0.5 19.4489 0.5 19.25C0.5 19.0511 0.579018 18.8603 0.71967 18.7197C0.860322 18.579 1.05109 18.5 1.25 18.5H2Z" fill="black"/>
</g>
<defs>
<clipPath id="clip0_130_59">
<rect width="24" height="24" fill="white" transform="translate(0.5 0.5)"/>
</clipPath>
</defs>
</svg>
