<svg width="25" height="25" viewBox="0 0 25 25" fill="none" xmlns="http://www.w3.org/2000/svg">
<g clip-path="url(#clip0_130_65)">
<path fill-rule="evenodd" clip-rule="evenodd" d="M21.5 8H3.5C3.10218 8 2.72064 8.15804 2.43934 8.43934C2.15804 8.72064 2 9.10218 2 9.5V17C2 17.3978 2.15804 17.7794 2.43934 18.0607C2.72064 18.342 3.10218 18.5 3.5 18.5H21.5C21.8978 18.5 22.2794 18.342 22.5607 18.0607C22.842 17.7794 23 17.3978 23 17V9.5C23 9.10218 22.842 8.72064 22.5607 8.43934C22.2794 8.15804 21.8978 8 21.5 8ZM3.5 6.5C2.70435 6.5 1.94129 6.81607 1.37868 7.37868C0.816071 7.94129 0.5 8.70435 0.5 9.5L0.5 17C0.5 17.7956 0.816071 18.5587 1.37868 19.1213C1.94129 19.6839 2.70435 20 3.5 20H21.5C22.2956 20 23.0587 19.6839 23.6213 19.1213C24.1839 18.5587 24.5 17.7956 24.5 17V9.5C24.5 8.70435 24.1839 7.94129 23.6213 7.37868C23.0587 6.81607 22.2956 6.5 21.5 6.5H3.5Z" fill="black"/>
<path d="M20 15.875C20 15.7755 20.0395 15.6802 20.1098 15.6098C20.1802 15.5395 20.2755 15.5 20.375 15.5H21.125C21.2245 15.5 21.3198 15.5395 21.3902 15.6098C21.4605 15.6802 21.5 15.7755 21.5 15.875V16.625C21.5 16.7245 21.4605 16.8198 21.3902 16.8902C21.3198 16.9605 21.2245 17 21.125 17H20.375C20.2755 17 20.1802 16.9605 20.1098 16.8902C20.0395 16.8198 20 16.7245 20 16.625V15.875ZM20 12.875C20 12.7755 20.0395 12.6802 20.1098 12.6098C20.1802 12.5395 20.2755 12.5 20.375 12.5H21.125C21.2245 12.5 21.3198 12.5395 21.3902 12.6098C21.4605 12.6802 21.5 12.7755 21.5 12.875V13.625C21.5 13.7245 21.4605 13.8198 21.3902 13.8902C21.3198 13.9605 21.2245 14 21.125 14H20.375C20.2755 14 20.1802 13.9605 20.1098 13.8902C20.0395 13.8198 20 13.7245 20 13.625V12.875ZM12.5 12.875C12.5 12.7755 12.5395 12.6802 12.6098 12.6098C12.6802 12.5395 12.7755 12.5 12.875 12.5H13.625C13.7245 12.5 13.8198 12.5395 13.8902 12.6098C13.9605 12.6802 14 12.7755 14 12.875V13.625C14 13.7245 13.9605 13.8198 13.8902 13.8902C13.8198 13.9605 13.7245 14 13.625 14H12.875C12.7755 14 12.6802 13.9605 12.6098 13.8902C12.5395 13.8198 12.5 13.7245 12.5 13.625V12.875ZM15.5 12.875C15.5 12.7755 15.5395 12.6802 15.6098 12.6098C15.6802 12.5395 15.7755 12.5 15.875 12.5H18.125C18.2245 12.5 18.3198 12.5395 18.3902 12.6098C18.4605 12.6802 18.5 12.7755 18.5 12.875V13.625C18.5 13.7245 18.4605 13.8198 18.3902 13.8902C18.3198 13.9605 18.2245 14 18.125 14H15.875C15.7755 14 15.6802 13.9605 15.6098 13.8902C15.5395 13.8198 15.5 13.7245 15.5 13.625V12.875ZM17 15.875C17 15.7755 17.0395 15.6802 17.1098 15.6098C17.1802 15.5395 17.2755 15.5 17.375 15.5H18.125C18.2245 15.5 18.3198 15.5395 18.3902 15.6098C18.4605 15.6802 18.5 15.7755 18.5 15.875V16.625C18.5 16.7245 18.4605 16.8198 18.3902 16.8902C18.3198 16.9605 18.2245 17 18.125 17H17.375C17.2755 17 17.1802 16.9605 17.1098 16.8902C17.0395 16.8198 17 16.7245 17 16.625V15.875ZM9.5 12.875C9.5 12.7755 9.53951 12.6802 9.60983 12.6098C9.68016 12.5395 9.77554 12.5 9.875 12.5H10.625C10.7245 12.5 10.8198 12.5395 10.8902 12.6098C10.9605 12.6802 11 12.7755 11 12.875V13.625C11 13.7245 10.9605 13.8198 10.8902 13.8902C10.8198 13.9605 10.7245 14 10.625 14H9.875C9.77554 14 9.68016 13.9605 9.60983 13.8902C9.53951 13.8198 9.5 13.7245 9.5 13.625V12.875ZM6.5 12.875C6.5 12.7755 6.53951 12.6802 6.60983 12.6098C6.68016 12.5395 6.77554 12.5 6.875 12.5H7.625C7.72446 12.5 7.81984 12.5395 7.89017 12.6098C7.96049 12.6802 8 12.7755 8 12.875V13.625C8 13.7245 7.96049 13.8198 7.89017 13.8902C7.81984 13.9605 7.72446 14 7.625 14H6.875C6.77554 14 6.68016 13.9605 6.60983 13.8902C6.53951 13.8198 6.5 13.7245 6.5 13.625V12.875ZM3.5 12.875C3.5 12.7755 3.53951 12.6802 3.60984 12.6098C3.68016 12.5395 3.77554 12.5 3.875 12.5H4.625C4.72446 12.5 4.81984 12.5395 4.89016 12.6098C4.96049 12.6802 5 12.7755 5 12.875V13.625C5 13.7245 4.96049 13.8198 4.89016 13.8902C4.81984 13.9605 4.72446 14 4.625 14H3.875C3.77554 14 3.68016 13.9605 3.60984 13.8902C3.53951 13.8198 3.5 13.7245 3.5 13.625V12.875ZM20 9.875C20 9.77554 20.0395 9.68016 20.1098 9.60983C20.1802 9.53951 20.2755 9.5 20.375 9.5H21.125C21.2245 9.5 21.3198 9.53951 21.3902 9.60983C21.4605 9.68016 21.5 9.77554 21.5 9.875V10.625C21.5 10.7245 21.4605 10.8198 21.3902 10.8902C21.3198 10.9605 21.2245 11 21.125 11H20.375C20.2755 11 20.1802 10.9605 20.1098 10.8902C20.0395 10.8198 20 10.7245 20 10.625V9.875ZM17 9.875C17 9.77554 17.0395 9.68016 17.1098 9.60983C17.1802 9.53951 17.2755 9.5 17.375 9.5H18.125C18.2245 9.5 18.3198 9.53951 18.3902 9.60983C18.4605 9.68016 18.5 9.77554 18.5 9.875V10.625C18.5 10.7245 18.4605 10.8198 18.3902 10.8902C18.3198 10.9605 18.2245 11 18.125 11H17.375C17.2755 11 17.1802 10.9605 17.1098 10.8902C17.0395 10.8198 17 10.7245 17 10.625V9.875ZM14 9.875C14 9.77554 14.0395 9.68016 14.1098 9.60983C14.1802 9.53951 14.2755 9.5 14.375 9.5H15.125C15.2245 9.5 15.3198 9.53951 15.3902 9.60983C15.4605 9.68016 15.5 9.77554 15.5 9.875V10.625C15.5 10.7245 15.4605 10.8198 15.3902 10.8902C15.3198 10.9605 15.2245 11 15.125 11H14.375C14.2755 11 14.1802 10.9605 14.1098 10.8902C14.0395 10.8198 14 10.7245 14 10.625V9.875ZM11 9.875C11 9.77554 11.0395 9.68016 11.1098 9.60983C11.1802 9.53951 11.2755 9.5 11.375 9.5H12.125C12.2245 9.5 12.3198 9.53951 12.3902 9.60983C12.4605 9.68016 12.5 9.77554 12.5 9.875V10.625C12.5 10.7245 12.4605 10.8198 12.3902 10.8902C12.3198 10.9605 12.2245 11 12.125 11H11.375C11.2755 11 11.1802 10.9605 11.1098 10.8902C11.0395 10.8198 11 10.7245 11 10.625V9.875ZM8 9.875C8 9.77554 8.03951 9.68016 8.10983 9.60983C8.18016 9.53951 8.27554 9.5 8.375 9.5H9.125C9.22446 9.5 9.31984 9.53951 9.39017 9.60983C9.46049 9.68016 9.5 9.77554 9.5 9.875V10.625C9.5 10.7245 9.46049 10.8198 9.39017 10.8902C9.31984 10.9605 9.22446 11 9.125 11H8.375C8.27554 11 8.18016 10.9605 8.10983 10.8902C8.03951 10.8198 8 10.7245 8 10.625V9.875ZM3.5 9.875C3.5 9.77554 3.53951 9.68016 3.60984 9.60983C3.68016 9.53951 3.77554 9.5 3.875 9.5H6.125C6.22446 9.5 6.31984 9.53951 6.39016 9.60983C6.46049 9.68016 6.5 9.77554 6.5 9.875V10.625C6.5 10.7245 6.46049 10.8198 6.39016 10.8902C6.31984 10.9605 6.22446 11 6.125 11H3.875C3.77554 11 3.68016 10.9605 3.60984 10.8902C3.53951 10.8198 3.5 10.7245 3.5 10.625V9.875ZM3.5 15.875C3.5 15.7755 3.53951 15.6802 3.60984 15.6098C3.68016 15.5395 3.77554 15.5 3.875 15.5H4.625C4.72446 15.5 4.81984 15.5395 4.89016 15.6098C4.96049 15.6802 5 15.7755 5 15.875V16.625C5 16.7245 4.96049 16.8198 4.89016 16.8902C4.81984 16.9605 4.72446 17 4.625 17H3.875C3.77554 17 3.68016 16.9605 3.60984 16.8902C3.53951 16.8198 3.5 16.7245 3.5 16.625V15.875ZM6.5 15.875C6.5 15.7755 6.53951 15.6802 6.60983 15.6098C6.68016 15.5395 6.77554 15.5 6.875 15.5H15.125C15.2245 15.5 15.3198 15.5395 15.3902 15.6098C15.4605 15.6802 15.5 15.7755 15.5 15.875V16.625C15.5 16.7245 15.4605 16.8198 15.3902 16.8902C15.3198 16.9605 15.2245 17 15.125 17H6.875C6.77554 17 6.68016 16.9605 6.60983 16.8902C6.53951 16.8198 6.5 16.7245 6.5 16.625V15.875Z" fill="black"/>
</g>
<defs>
<clipPath id="clip0_130_65">
<rect width="24" height="24" fill="white" transform="translate(0.5 0.5)"/>
</clipPath>
</defs>
</svg>
